<?xml version="1.0" encoding="UTF-8" standalone="no"?>
<!DOCTYPE svg PUBLIC "-//W3C//DTD SVG 1.1//EN" "http://www.w3.org/Graphics/SVG/1.1/DTD/svg11.dtd">
<svg width="100%" height="100%" viewBox="0 0 796 143" version="1.1" xmlns="http://www.w3.org/2000/svg" xmlns:xlink="http://www.w3.org/1999/xlink" xml:space="preserve" xmlns:serif="http://www.serif.com/" style="fill-rule:evenodd;clip-rule:evenodd;stroke-linejoin:round;stroke-miterlimit:2;">
    <g>
        <clipPath id="_clip1">
            <rect x="0" y="0" width="795.2" height="142.4"/>
        </clipPath>
        <g clip-path="url(#_clip1)">
            <path d="M143.7,23.8L143.7,4.8C143.7,2.2 141.6,0 138.9,0L4.8,0C2.2,0 0,2.1 0,4.8L0,137.6C0,140.2 2.2,142.4 4.8,142.4L33.5,142.4C36.2,142.4 38.3,140.3 38.3,137.6L38.3,90.2C38.3,87.6 40.5,85.4 43.1,85.4L129.3,85.4C131.9,85.4 134.1,83.3 134.1,80.7L134.1,61.7C134.1,59.1 131.9,57 129.3,57L43.1,57C40.5,57 38.3,54.9 38.3,52.3L38.3,33.3C38.3,30.7 40.5,28.6 43.1,28.6L138.9,28.6C141.6,28.5 143.7,26.4 143.7,23.8M306.6,137.6L306.6,118.6C306.6,116 304.4,113.9 301.8,113.9L196.4,113.9C193.7,113.9 191.6,111.8 191.6,109.1L191.6,90.1C191.6,87.5 193.7,85.3 196.4,85.3L292.2,85.3C294.8,85.3 297,83.2 297,80.6L297,61.6C297,59 294.8,56.9 292.2,56.9L196.4,56.9C193.7,56.9 191.6,54.8 191.6,52.2L191.6,33.2C191.6,30.6 193.7,28.5 196.4,28.5L301.8,28.5C304.4,28.5 306.6,26.4 306.6,23.8L306.6,4.8C306.6,2.2 304.4,-0 301.8,-0L158.1,-0C155.4,-0 153.3,2.1 153.3,4.8L153.3,137.6C153.3,140.2 155.4,142.4 158.1,142.4L301.8,142.4C304.5,142.4 306.6,140.2 306.6,137.6M469.5,113.9L469.5,85.4C469.5,69.7 456.6,57 440.8,57L364.1,57C358.8,57 354.5,52.8 354.5,47.5L354.5,38C354.5,32.7 358.8,28.5 364.1,28.5L426.4,28.5C429.1,28.5 431.2,30.6 431.2,33.2C431.2,35.8 433.3,37.9 436,37.9L464.8,37.9C467.4,37.9 469.6,35.8 469.6,33.2L469.6,28.5C469.6,12.8 456.7,0 440.9,0L345.1,0C329.2,0 316.4,12.8 316.4,28.5L316.4,57C316.4,72.7 329.2,85.4 345.1,85.4L421.8,85.4C427.1,85.4 431.4,89.7 431.4,94.9L431.4,104.4C431.4,109.7 427.1,113.9 421.8,113.9L359.5,113.9C356.9,113.9 354.7,111.8 354.7,109.1C354.7,106.5 352.6,104.4 349.9,104.4L321,104.4C318.4,104.4 316.2,106.5 316.2,109.1L316.2,113.9C316.2,129.6 329,142.4 344.9,142.4L440.7,142.4C456.6,142.4 469.5,129.6 469.5,113.9M632.4,23.8L632.4,4.8C632.4,2.2 630.3,0 627.6,0L483.9,0C481.2,0 479.1,2.1 479.1,4.8L479.1,23.8C479.1,26.4 481.2,28.5 483.9,28.5L531.8,28.5C534.4,28.5 536.6,30.6 536.6,33.2L536.6,137.6C536.6,140.2 538.7,142.4 541.4,142.4L570.1,142.4C572.8,142.4 574.9,140.3 574.9,137.6L574.9,33.2C574.9,30.6 577,28.5 579.7,28.5L627.6,28.5C630.2,28.5 632.4,26.4 632.4,23.8M756.9,104.4C756.9,109.7 752.6,113.9 747.3,113.9L689.8,113.9C684.5,113.9 680.2,109.7 680.2,104.4L680.2,38C680.2,32.7 684.5,28.5 689.8,28.5L747.3,28.5C752.6,28.5 756.9,32.7 756.9,38L756.9,104.4ZM795.2,113.9L795.2,28.5C795.2,12.8 782.4,0 766.5,0L670.7,0C654.9,0 642,12.8 642,28.5L642,113.9C642,129.6 654.9,142.4 670.7,142.4L766.5,142.4C782.4,142.4 795.2,129.6 795.2,113.9" style="fill:white;fill-rule:nonzero;"/>
        </g>
    </g>
</svg>
